<?xml version="1.0" encoding="utf-8"?>
<!-- Generator: Adobe Illustrator 21.0.2, SVG Export Plug-In . SVG Version: 6.00 Build 0)  -->
<svg version="1.1" id="Layer_1" xmlns="http://www.w3.org/2000/svg" xmlns:xlink="http://www.w3.org/1999/xlink" x="0px" y="0px"
	 viewBox="0 0 268.4 358.7" style="enable-background:new 0 0 268.4 358.7;" xml:space="preserve">
<style type="text/css">
	.st0{fill:none;stroke:#000000;stroke-miterlimit:10;}
	.st1{fill:none;stroke:#000000;stroke-width:5.6693;stroke-linecap:round;stroke-linejoin:round;stroke-miterlimit:10;}
	.st2{fill:#9EC54C;}
	.st3{enable-background:new    ;}
	.st4{fill:none;stroke:#9EC54C;stroke-miterlimit:10;}
	.st5{fill:#38673D;}
	.st6{fill:#6BB476;}
</style>
<g>
	<path d="M29.5,253c-0.4,3-1.2,6.1-2,8.6c5.1-4.6,9.9-6.7,14.2-6.7c6.8,0,10.3,3.6,9.4,10.1l-3.7,26.3H34.5l3.2-22.7
		c0.3-2.3-0.1-2.8-1.8-2.8c-2.6,0-5.1,1.1-8.9,4.1l-2.9,21.3h-13l7-49.9h13L29.5,253z"/>
	<path d="M93.9,274.1c-1.9,13.3-7.3,18-20.9,18c-13.5,0-19.3-5.1-17.3-19c1.9-13.5,7.3-18.2,21-18.2
		C90.3,254.9,95.9,260.1,93.9,274.1z M69.2,274.1c-1,7.3-0.4,9,4.3,9c4.5,0,5.9-1.9,7.1-10c1.1-7.4,0.4-9.1-4-9.1
		C71.8,264,70.4,265.8,69.2,274.1z"/>
	<path d="M112.6,262.4c3.4-3.5,8.8-7.3,14.5-7.3c8.1,0,11.5,5.9,9.8,19.4c-2,15.2-8.1,17.9-16.6,17.9c-2.6,0-6.6-0.3-10.1-1
		c0,2.1-0.1,4.3-0.5,6.7l-1.1,6.5h-13l6.8-48.6h10.3L112.6,262.4L112.6,262.4z M115.8,284c5.8,0,6.7-1.4,7.8-9.3
		c1.1-7.8,0.6-9.5-2.1-9.5c-2.2,0-5.5,1.8-8.2,4.4l-1.9,14.4H115.8z"/>
	<path d="M155.7,262.4c3.4-3.5,8.8-7.3,14.5-7.3c8.1,0,11.5,5.9,9.8,19.4c-2,15.2-8.1,17.9-16.6,17.9c-2.6,0-6.6-0.3-10.1-1
		c0,2.1-0.1,4.3-0.5,6.7l-1.1,6.5h-13l6.8-48.6h10.3L155.7,262.4L155.7,262.4z M158.9,284c5.8,0,6.7-1.4,7.8-9.3
		c1.1-7.8,0.6-9.5-2.1-9.5c-2.2,0-5.5,1.8-8.2,4.4l-1.9,14.4H158.9z"/>
	<path d="M219,289.3c-4.8,2.1-11,2.9-16.3,2.9c-15.1,0-19.2-6.6-17.9-19c1.6-14.8,8.3-18.2,21.1-18.2c14,0,17.7,4.6,16.5,12.8
		c-1,6.6-5.5,8.6-14.8,9.3l-9.6,0.7c0.1,3.8,2,4.5,6,4.5c3.1,0,9.8-0.4,14.1-0.9L219,289.3z M204.8,270.2c3.2-0.3,4.9-0.8,5.2-3.8
		c0.2-2.4-0.7-2.8-4.3-2.7c-4.3,0.1-5.8,1.4-6.9,7.1L204.8,270.2z"/>
	<path d="M254.2,266.8h-3c-2.7,0-5.6,0.8-10.5,2.5l-3,22h-13l5-35.4h10.1l0.2,5.6c5.1-4.5,10.1-6.6,14.5-6.6h2.4L254.2,266.8z"/>
	<path class="st2" d="M264,285.2c3.1,0,4.8,1.6,4.3,4.8l-0.4,3.1c-0.4,2.9-1.8,4.2-4.9,4.2h-2.8c-3.2,0-4.6-1.6-4.3-4.7l0.4-3.2
		c0.4-2.9,2-4.2,5-4.2L264,285.2L264,285.2z"/>
	<path d="M18.3,311.5c4.6-4.6,8.6-6.6,13.5-6.6s8,2.1,8.9,5.8c4.3-4.1,8-5.8,12.5-5.8c6.8,0,10.1,3.8,9.2,10.1l-3.7,26.3H45.9
		l3.1-22.7c0.3-2.3-0.6-2.8-1.9-2.8c-1.6,0-3.6,0.7-6.9,3.5l-3.1,22H24.6l3.1-22.7c0.4-2.1-0.2-2.8-1.9-2.8c-1.8,0-3.7,0.8-7,3.3
		l-3.1,22.2H2.8l5-35.4h10.1L18.3,311.5z"/>
	<path d="M105.2,324.1c-1.9,13.3-7.3,18-20.9,18c-13.5,0-19.3-5.1-17.3-19c1.9-13.5,7.3-18.2,21-18.2
		C101.6,304.9,107.2,310.1,105.2,324.1z M80.4,324.1c-1,7.3-0.4,9,4.3,9c4.5,0,5.9-1.9,7.1-10c1.1-7.4,0.4-9.1-4-9.1
		C83.1,314,81.6,315.8,80.4,324.1z"/>
	<path d="M123.9,312.5c4.8-4.8,10.6-7.6,15.8-7.6c5.8,0,10,3.4,9,10.1l-3.7,26.3h-13l3.1-22.2c0.4-2.6-0.1-3.4-2.1-3.2
		c-2.3,0.1-4.8,1.2-8.4,4.1l-3,21.4h-13l4.9-35.4h10.2L123.9,312.5z"/>
	<path d="M187.4,339.3c-4.8,2.1-11,2.9-16.3,2.9c-15.1,0-19.2-6.6-17.9-19c1.6-14.8,8.3-18.2,21.1-18.2c14,0,17.7,4.6,16.5,12.8
		c-1,6.6-5.5,8.6-14.8,9.3l-9.6,0.7c0.1,3.8,2,4.5,6,4.5c3.1,0,9.8-0.4,14.1-0.9L187.4,339.3z M173.2,320.2c3.2-0.3,4.9-0.8,5.2-3.8
		c0.2-2.4-0.7-2.8-4.3-2.7c-4.3,0.1-5.8,1.4-6.9,7.1L173.2,320.2z"/>
	<path d="M235.2,305.9c-1.9,12.3-8.3,27.4-11.6,33.3c-7.1,11.9-15.5,16.8-26.9,16.8l-1.1-7.3c5.1-1.6,9.3-2.5,13.3-7.3h-5
		c-2.4,0-4.1-1.6-4.4-3.7l-5.1-31.7h14.1l1.9,26.2c0,0.6,0.5,1.1,1.1,1.1h2.3c3.6-7.7,5.8-15.5,7.6-27.3h13.8V305.9z"/>
</g>
<path class="st6" d="M58.3,3.3l-36,216h72l24.2-145C124.7,37.1,96,3.3,58.3,3.3L58.3,3.3z"/>
<path class="st2" d="M132.3,57.3l-27,162h72l15.2-91C198.7,91.1,170,57.3,132.3,57.3L132.3,57.3z"/>
</svg>
