<svg xmlns="http://www.w3.org/2000/svg" xmlns:xlink="http://www.w3.org/1999/xlink" xmlns:fi="http://pattern.flaticon.com/" x="0" y="0" width="1920" height="960" viewBox="0 0 1920 960"><rect x="0px" y="0px" width="100%" height="100%" opacity="0" fill="#ffffff"/><defs><g transform="matrix(0.09855850785970688 0 0 0.09855850785970688 -22.23097801208496 228.76902198791504)" id="L1_0"><path d="M487.59,299.894h-7.662v-69.015c0-10.926-5.438-20.6-13.743-26.478v-9.397c0-13.631-11.089-24.72-24.72-24.72h-5.721    l21.889-32.12c7.337-10.766,4.547-25.495-6.219-32.833L302.883,4.111c-5.215-3.555-11.501-4.867-17.705-3.69    c-6.201,1.175-11.574,4.694-15.128,9.91L141.849,198.454h-35.675l8.607-87.13c0.097-0.982,0.735-1.833,1.625-2.168    c11.089-4.181,20.699-11.989,27.059-21.985c0.501-0.787,1.446-1.237,2.424-1.138l55.955,5.528    c4.012,0.389,7.581-2.533,7.977-6.543s-2.533-7.581-6.543-7.977l-55.955-5.528c-6.495-0.636-12.689,2.357-16.169,7.825    c-4.676,7.35-11.742,13.09-19.895,16.164c-6.137,2.314-10.351,7.826-10.999,14.387l-8.748,88.564h-9.303L95.821,60.649    c0.49-4.96,4.917-8.604,9.883-8.107l113.074,11.17c4.01,0.387,7.581-2.533,7.977-6.543s-2.533-7.581-6.543-7.977l-113.074-11.17    C94.174,36.743,82.581,46.248,81.3,59.214l-10.972,111.07H51.643c-13.63,0-24.72,11.089-24.72,24.72v6.41    c-11.151,5.134-18.915,16.406-18.915,29.465v248.695c0,17.88,14.546,32.426,32.427,32.426h407.067    c17.88,0,32.426-14.546,32.426-32.426V410.56h7.662c9.044,0,16.401-7.357,16.401-16.4v-77.865    C503.992,307.251,496.634,299.894,487.59,299.894z M441.465,184.876L441.465,184.876c5.586-0.001,10.129,4.543,10.129,10.129    v3.717c-1.342-0.17-2.705-0.267-4.092-0.267h-30.955l9.253-13.579H441.465z M282.107,18.547c1.36-1.995,3.415-3.341,5.787-3.791    c0.567-0.107,1.136-0.161,1.701-0.161c1.797,0,3.553,0.538,5.071,1.572l148.531,101.22c4.118,2.807,5.186,8.441,2.38,12.559    l-46.686,68.506h-11.204l22.889-33.587c3.712-5.447,4.018-12.379,0.796-18.092c-4.282-7.59-6.018-16.527-4.888-25.166    c0.84-6.427-1.988-12.701-7.38-16.375L322.106,52.76c-5.393-3.675-12.267-4.012-17.941-0.879    c-7.625,4.21-16.578,5.863-25.208,4.655c-6.4-0.898-12.891,1.992-16.548,7.357l-91.699,134.56h-11.204L282.107,18.547z     M285.32,142.438c-31.771,0-57.851,24.773-59.976,56.015h-36.979L274.464,72.11c0.001,0,0.001,0,0.001,0    c0.489-0.719,1.3-1.147,2.133-1.147c0.111,0,0.222,0.008,0.333,0.023c11.738,1.642,23.913-0.604,34.285-6.331    c0.816-0.452,1.864-0.387,2.672,0.163l76.999,52.473c0.806,0.55,1.249,1.502,1.129,2.426c-1.537,11.749,0.825,23.903,6.648,34.225    c0.467,0.829,0.41,1.891-0.144,2.706l-28.488,41.804h-24.733C343.172,167.211,317.093,142.438,285.32,142.438z M330.668,198.454    h-90.695c2.09-23.189,21.624-41.424,45.347-41.424C309.044,157.029,328.579,175.265,330.668,198.454z M41.514,195.004    c0-5.586,4.543-10.13,10.129-10.13h17.244l-1.341,13.579H41.514V195.004z M22.599,230.879c0-9.834,8.001-17.835,17.836-17.835    h407.067c9.835,0,17.835,8.001,17.835,17.835v20.244H22.599V230.879z M465.337,479.574c0,9.834-8,17.835-17.835,17.835H40.435    c-9.835,0-17.836-8.001-17.836-17.835V459.33h39.342c4.03,0,7.295-3.266,7.295-7.295c0-4.029-3.266-7.295-7.295-7.295H22.599    V265.714h442.738v34.18h-69.366h-0.001c-21.856,0-40.788,12.74-49.773,31.181c-0.03,0.062-0.064,0.122-0.095,0.184    c-0.076,0.157-0.142,0.32-0.216,0.478c-1.07,2.273-2,4.626-2.757,7.054c-0.002,0.007-0.004,0.013-0.006,0.02    c-1.615,5.189-2.486,10.702-2.486,16.416c0,30.511,24.822,55.333,55.332,55.333h0.001h69.366v34.18H108.655    c-4.03,0-7.295,3.266-7.295,7.295c0,4.029,3.266,7.295,7.295,7.295h356.682V479.574z M489.401,394.159    c0,0.998-0.812,1.81-1.811,1.81h-91.618c-15.445,0-28.911-8.639-35.818-21.338c-0.314-0.577-0.614-1.163-0.901-1.756    c-0.573-1.187-1.09-2.406-1.547-3.654c-1.602-4.366-2.476-9.08-2.476-13.994s0.875-9.628,2.476-13.994    c0.458-1.247,0.975-2.466,1.547-3.654c0.287-0.593,0.587-1.179,0.901-1.756c6.907-12.699,20.373-21.338,35.818-21.338h91.618    c0.998,0,1.811,0.812,1.811,1.81V394.159z" fill="#ffffff"/><path d="M397.681,325.627c-16.322,0-29.6,13.279-29.6,29.6c0,16.321,13.278,29.599,29.6,29.599c16.322,0,29.6-13.278,29.6-29.599    C427.281,338.906,414.003,325.627,397.681,325.627z M397.681,370.235c-8.276,0-15.009-6.733-15.009-15.008    c0-8.275,6.733-15.009,15.009-15.009s15.009,6.733,15.009,15.009S405.957,370.235,397.681,370.235z" fill="#ffffff"/></g><g transform="matrix(0.601157546043396 0 0 0.601157546043396 200.7668370604515 109.76683706045151)" id="L1_1"><path d="M16.586,10.028c0.407,1.178,1.504,1.97,2.73,1.97h7.431c1.226,0,2.323-0.792,2.73-1.97   c0.388-1.126,1.607-3.645,2.553-4.445c0.829-0.703,1.218-1.792,1.014-2.842c-0.2-1.033-0.921-1.849-1.928-2.182   c-3.001-0.995-5.663-0.66-7.698,0.967c-0.365,0.292-0.855,0.292-1.22,0C20.163-0.1,17.503-0.435,14.5,0.56   c-1.007,0.333-1.729,1.148-1.929,2.182c-0.204,1.05,0.185,2.139,1.014,2.842C14.656,6.49,16.296,9.188,16.586,10.028z    M14.535,3.123c0.036-0.187,0.162-0.521,0.594-0.664c0.93-0.308,1.797-0.461,2.599-0.461c1.234,0,2.312,0.364,3.221,1.091   c1.095,0.877,2.625,0.875,3.718,0c1.501-1.2,3.458-1.412,5.82-0.63c0.432,0.143,0.557,0.478,0.593,0.664   c0.067,0.347-0.061,0.696-0.343,0.935c-1.528,1.294-2.894,4.576-3.15,5.319c-0.128,0.372-0.466,0.622-0.839,0.622h-7.431   c-0.374,0-0.711-0.25-0.839-0.622c-0.417-1.208-2.272-4.194-3.599-5.319C14.596,3.818,14.467,3.469,14.535,3.123z" fill="#ffffff"/><path d="M31.532,13.998c0-0.552-0.448-1-1-1c-0.186,0-0.351,0.065-0.5,0.153c-0.149-0.089-0.314-0.153-0.5-0.153h-12   c-0.552,0-1,0.448-1,1s0.448,1,1,1h12v1h-11c-0.552,0-1,0.448-1,1s0.448,1,1,1h11.925c0.896,0.746,2,1.173,3.179,1.173   c1.335,0,2.591-0.521,3.536-1.466c0.391-0.391,0.391-1.023,0-1.414c-0.391-0.391-1.023-0.391-1.414,0   c-1.13,1.13-3.088,1.133-4.226,0.014V13.998z" fill="#ffffff"/><path d="M21.532,25.998c-6.411,0-14,8.131-14,15c0,0.552,0.448,1,1,1s1-0.448,1-1c0-5.71,6.729-13,12-13c0.552,0,1-0.448,1-1   S22.084,25.998,21.532,25.998z" fill="#ffffff"/><path d="M49.532,31.998c-1.031,0-2.259,0.06-3.497,0.201c-1.347-2.466-3.123-4.587-5.365-6.304L33.468,21   c-1.191-0.914-3.068-2.002-5.246-2.002h-7.777c-1.924,0-3.816,0.655-5.3,1.822l-7.078,5.157c-7.377,5.8-9.712,15.964-5.551,24.168   c1.514,2.985,4.043,6.592,7.501,6.826c0.271,0.018,0.545,0.028,0.821,0.028h19.459c1.468,1.826,3.715,3,6.235,3   c2.898,0,5.434-1.555,6.838-3.869c1.787,0.555,3.978,0.869,6.162,0.869c4.809,0,10-1.529,10-4v-5.5h-0.079   c0.048-0.162,0.079-0.328,0.079-0.5v-6v-5.5C59.532,32.735,53.246,31.998,49.532,31.998z M57.456,35.489   c-0.021,0.021-0.038,0.042-0.067,0.065c-0.039,0.031-0.086,0.064-0.139,0.098c-0.066,0.042-0.146,0.086-0.233,0.13   c-0.071,0.036-0.145,0.073-0.23,0.11c-0.105,0.047-0.229,0.094-0.356,0.142c-0.102,0.038-0.205,0.076-0.321,0.115   c-0.146,0.048-0.314,0.096-0.483,0.143c-0.132,0.037-0.262,0.075-0.408,0.111c-0.19,0.047-0.404,0.09-0.617,0.133   c-0.161,0.033-0.314,0.067-0.488,0.098c-0.24,0.042-0.508,0.078-0.773,0.114c-0.181,0.025-0.35,0.053-0.543,0.075   c-0.315,0.036-0.662,0.061-1.008,0.086c-0.176,0.013-0.336,0.031-0.52,0.042c-0.546,0.03-1.124,0.048-1.741,0.048   s-1.195-0.018-1.741-0.048c-0.184-0.01-0.344-0.028-0.52-0.042c-0.346-0.026-0.693-0.051-1.008-0.086   c-0.193-0.022-0.362-0.05-0.543-0.075c-0.265-0.036-0.533-0.072-0.773-0.114c-0.174-0.031-0.327-0.065-0.488-0.098   c-0.213-0.044-0.427-0.087-0.617-0.133c-0.146-0.036-0.275-0.073-0.408-0.111c-0.169-0.047-0.336-0.095-0.483-0.143   c-0.116-0.038-0.219-0.077-0.321-0.115c-0.127-0.048-0.251-0.095-0.356-0.142c-0.085-0.037-0.159-0.074-0.23-0.11   c-0.087-0.045-0.167-0.089-0.233-0.13c-0.053-0.034-0.1-0.066-0.139-0.098c-0.027-0.021-0.042-0.04-0.062-0.06   c0.012-0.01,0.02-0.02,0.034-0.031c0.037-0.031,0.09-0.066,0.142-0.1c0.081-0.053,0.182-0.109,0.301-0.169   c0.065-0.033,0.129-0.065,0.205-0.098c0.079-0.035,0.17-0.07,0.261-0.106c0.108-0.042,0.226-0.084,0.351-0.126   c0.09-0.03,0.177-0.061,0.277-0.091c0.224-0.068,0.469-0.135,0.738-0.2c0.124-0.03,0.268-0.057,0.403-0.085   c0.163-0.035,0.33-0.069,0.507-0.101c0.195-0.035,0.402-0.068,0.616-0.1c1.127-0.17,2.476-0.288,4.085-0.288   C54.253,33.998,56.896,34.973,57.456,35.489z M42.207,43.716c0.09,0.038,0.183,0.074,0.277,0.111   c0.174,0.068,0.352,0.132,0.536,0.195c0.097,0.033,0.192,0.065,0.291,0.096c0.211,0.066,0.428,0.127,0.65,0.186   c0.078,0.021,0.153,0.044,0.232,0.063c0.303,0.076,0.613,0.146,0.931,0.208c0.066,0.013,0.135,0.023,0.202,0.036   c0.255,0.048,0.513,0.092,0.775,0.131c0.112,0.017,0.225,0.031,0.338,0.046c0.225,0.03,0.451,0.057,0.68,0.081   c0.12,0.012,0.24,0.024,0.36,0.035c0.236,0.021,0.473,0.037,0.711,0.051c0.106,0.006,0.212,0.014,0.318,0.019   c0.342,0.015,0.683,0.025,1.023,0.025c0.34,0,0.681-0.01,1.023-0.025c0.108-0.005,0.216-0.013,0.324-0.019   c0.235-0.014,0.47-0.03,0.704-0.05c0.123-0.011,0.246-0.023,0.368-0.036c0.225-0.023,0.448-0.05,0.67-0.08   c0.116-0.015,0.232-0.03,0.347-0.047c0.258-0.038,0.512-0.082,0.763-0.129c0.071-0.013,0.143-0.024,0.214-0.038   c0.316-0.063,0.625-0.132,0.926-0.207c0.084-0.021,0.164-0.045,0.247-0.067c0.217-0.058,0.43-0.118,0.636-0.183   c0.101-0.032,0.198-0.065,0.296-0.098c0.183-0.062,0.361-0.127,0.534-0.194c0.093-0.036,0.186-0.073,0.276-0.111   c0.18-0.076,0.351-0.156,0.516-0.238c0.052-0.026,0.111-0.048,0.161-0.074l0.006,3.524c-0.235,0.569-2.819,1.837-6.896,2.04   c-0.366,0.013-0.72,0.031-1.115,0.031c-2.203,0-4.379-0.338-6.041-0.932c-0.006-0.01-0.013-0.02-0.019-0.03   c-0.118-0.206-0.243-0.407-0.378-0.601c-0.02-0.029-0.043-0.056-0.064-0.085c-0.125-0.175-0.254-0.346-0.393-0.51   c-0.042-0.049-0.087-0.094-0.13-0.143c-0.123-0.139-0.247-0.276-0.379-0.406c-0.068-0.067-0.141-0.127-0.211-0.192   c-0.116-0.106-0.23-0.212-0.351-0.311c-0.012-0.01-0.022-0.021-0.034-0.03c0-0.391,0.001-1.26,0.002-2.353   c0.051,0.027,0.112,0.05,0.164,0.076C41.862,43.562,42.03,43.641,42.207,43.716z M28.996,54.998H10.838   c-0.231,0-0.461-0.008-0.688-0.023c-1.965-0.133-4.043-2.17-5.851-5.735c-3.731-7.356-1.626-16.479,4.974-21.669l7.078-5.157   c1.162-0.913,2.616-1.416,4.093-1.416h7.777c1.617,0,3.083,0.864,4.076,1.623l7.202,4.894c1.789,1.372,3.28,3.05,4.445,5.001   c-1.266,0.261-2.49,0.659-3.331,1.243c-0.023,0.016-0.046,0.032-0.069,0.048c-0.127,0.092-0.243,0.189-0.349,0.291   c-0.045,0.043-0.085,0.087-0.126,0.132c-0.079,0.087-0.155,0.175-0.217,0.269c-0.052,0.077-0.09,0.16-0.13,0.242   c-0.035,0.074-0.077,0.145-0.102,0.223c-0.055,0.169-0.089,0.346-0.089,0.534v5.5v3.589c-0.337-0.137-0.686-0.247-1.044-0.337   c-0.047-0.012-0.094-0.025-0.141-0.036c-0.35-0.082-0.707-0.144-1.072-0.178c-0.041-0.004-0.082-0.003-0.123-0.006   c-0.205-0.016-0.411-0.031-0.62-0.031c-0.11,0-0.216,0.012-0.325,0.016c-0.085,0.003-0.17,0.007-0.255,0.013   c-0.356,0.026-0.708,0.067-1.05,0.138c-0.007,0.001-0.013,0.001-0.02,0.003c-0.027,0.006-0.052,0.017-0.079,0.023   c-0.313,0.069-0.618,0.16-0.916,0.266c-0.108,0.038-0.216,0.076-0.322,0.118c-0.297,0.119-0.587,0.251-0.866,0.404   c-0.105,0.057-0.203,0.123-0.305,0.185c-0.195,0.119-0.385,0.244-0.568,0.379c-0.108,0.079-0.217,0.156-0.321,0.24   c-0.235,0.19-0.459,0.393-0.671,0.609c-0.093,0.094-0.178,0.194-0.266,0.293c-0.15,0.168-0.293,0.343-0.428,0.523   c-0.073,0.098-0.15,0.191-0.219,0.292c-0.176,0.257-0.333,0.527-0.478,0.804c-0.056,0.108-0.107,0.218-0.159,0.329   c-0.114,0.245-0.216,0.495-0.305,0.753c-0.026,0.075-0.058,0.146-0.081,0.222c-0.103,0.328-0.178,0.668-0.238,1.012   c-0.008,0.044-0.024,0.086-0.031,0.13c-0.008,0.054-0.008,0.112-0.015,0.166c-0.032,0.235-0.052,0.473-0.063,0.714   c-0.004,0.086-0.012,0.171-0.013,0.258c0,0.037-0.006,0.073-0.006,0.11c0,0.159,0.015,0.314,0.024,0.47   C28.594,53.333,28.735,54.201,28.996,54.998z M36.532,57.998c-3.285,0-5.958-2.654-5.996-5.929c0-0.078,0.002-0.155,0.005-0.233   c0.003-0.11,0.008-0.219,0.017-0.328c0.007-0.092,0.018-0.183,0.029-0.274c0.012-0.093,0.026-0.185,0.042-0.276   c0.045-0.26,0.103-0.517,0.182-0.766c0.008-0.027,0.02-0.052,0.029-0.078c0.084-0.251,0.185-0.496,0.302-0.733   c0.011-0.023,0.022-0.046,0.033-0.068c0.539-1.058,1.39-1.952,2.421-2.541c0.004-0.002,0.007-0.005,0.011-0.007   c0.234-0.133,0.48-0.245,0.73-0.345c0.065-0.026,0.131-0.049,0.196-0.072c0.222-0.079,0.448-0.148,0.681-0.199   c0.032-0.007,0.062-0.018,0.094-0.024c0.289-0.059,0.579-0.091,0.868-0.108c0.055-0.003,0.11-0.007,0.166-0.008   c0.295-0.009,0.589-0.001,0.879,0.033c0.017,0.002,0.033,0.005,0.049,0.008c0.306,0.038,0.609,0.099,0.907,0.185   c0.004,0.001,0.009,0.002,0.013,0.003c0.307,0.089,0.608,0.204,0.902,0.343c0.27,0.128,0.533,0.271,0.779,0.436l0.04,0.028   c0.035,0.024,0.067,0.051,0.101,0.075c0.166,0.119,0.325,0.245,0.478,0.38c0.037,0.032,0.073,0.066,0.109,0.099   c0.153,0.142,0.299,0.29,0.436,0.446c0.014,0.016,0.028,0.03,0.042,0.046c0.318,0.37,0.592,0.779,0.812,1.218   c0.051,0.1,0.102,0.201,0.147,0.304c0.076,0.175,0.142,0.352,0.201,0.531c0.004,0.013,0.01,0.026,0.014,0.039   c0.058,0.181,0.105,0.365,0.145,0.55c0.003,0.015,0.008,0.029,0.011,0.043c0.038,0.184,0.066,0.37,0.087,0.557   c0.002,0.017,0.006,0.032,0.008,0.049c0.021,0.204,0.032,0.409,0.032,0.616c0,0.212-0.012,0.423-0.034,0.633   c-0.003,0.031-0.01,0.06-0.014,0.091c-0.022,0.181-0.049,0.361-0.088,0.538c-0.004,0.02-0.011,0.039-0.015,0.059   c-0.043,0.19-0.094,0.378-0.156,0.564c-0.003,0.008-0.006,0.016-0.009,0.024c-0.066,0.194-0.142,0.385-0.228,0.574   C41.041,56.552,38.954,57.998,36.532,57.998z M49.532,54.998c-1.898,0-3.787-0.253-5.339-0.706   c0.001-0.002,0.001-0.004,0.001-0.006c0.097-0.324,0.168-0.658,0.224-0.998c0.013-0.081,0.026-0.161,0.037-0.243   c0.045-0.344,0.077-0.691,0.077-1.047c0-0.259-0.014-0.516-0.039-0.771c-0.009-0.092-0.025-0.181-0.037-0.272   c-0.017-0.129-0.029-0.259-0.052-0.386c1.517,0.28,3.279,0.429,5.128,0.429c2.39,0,5.845-0.305,8.004-1.259l0.006,3.188   C57.286,53.546,54.251,54.998,49.532,54.998z M49.532,42.998c-4.703,0-7.731-1.441-7.995-1.994c0.001-1.14,0.002-2.297,0.002-3.261   c0.025,0.011,0.055,0.02,0.081,0.031c0.239,0.102,0.489,0.198,0.755,0.286c0.014,0.005,0.028,0.01,0.043,0.014   c0.272,0.088,0.559,0.167,0.852,0.24c0.096,0.024,0.195,0.046,0.293,0.068c0.214,0.049,0.43,0.096,0.651,0.138   c0.107,0.021,0.213,0.041,0.321,0.06c0.243,0.043,0.487,0.081,0.734,0.117c0.078,0.011,0.155,0.024,0.233,0.035   c0.323,0.043,0.646,0.081,0.967,0.112c0.081,0.008,0.16,0.014,0.241,0.021c0.247,0.022,0.491,0.042,0.733,0.058   c0.105,0.007,0.207,0.013,0.31,0.019c0.224,0.013,0.442,0.023,0.658,0.031c0.091,0.003,0.182,0.007,0.271,0.01   c0.293,0.008,0.579,0.013,0.849,0.013c0.269,0,0.555-0.005,0.848-0.013c0.091-0.003,0.183-0.007,0.275-0.01   c0.214-0.008,0.431-0.018,0.654-0.031c0.105-0.006,0.208-0.012,0.314-0.019c0.242-0.016,0.487-0.036,0.734-0.059   c0.08-0.007,0.158-0.013,0.238-0.021c0.322-0.032,0.645-0.069,0.968-0.113c0.079-0.011,0.157-0.024,0.236-0.035   c0.246-0.035,0.49-0.074,0.732-0.117c0.109-0.019,0.215-0.04,0.322-0.06c0.221-0.043,0.438-0.089,0.653-0.139   c0.098-0.023,0.196-0.044,0.292-0.068c0.299-0.075,0.591-0.155,0.868-0.245c0.014-0.005,0.026-0.01,0.04-0.014   c0.261-0.086,0.508-0.181,0.743-0.281c0.028-0.012,0.061-0.022,0.089-0.034l0.006,3.188C57.286,41.546,54.251,42.998,49.532,42.998   z" fill="#ffffff"/></g><g transform="matrix(0.08029220253229141 0 0 0.08029220253229141 28.445171356201172 53.44517135620117)" id="L1_2"><path d="m441.269531 79.457031c-2.882812-3.015625-7.660156-3.125-10.675781-.246093-3.015625 2.878906-3.125 7.660156-.246094 10.675781 81.488282 85.332031 90.121094 219.808593 14.523438 315.449219-82.75 104.6875-234.058594 121.96875-338.269532 39.597656-104.691406-82.75-121.96875-234.058594-39.597656-338.269532 83.753906-105.960937 237.6875-122.320312 341.882813-36.6875 3.222656 2.648438 7.976562 2.179688 10.625-1.039062 2.648437-3.222656 2.183593-7.980469-1.039063-10.628906-110.691406-90.917969-274.242187-73.699219-363.316406 38.988281-36.082031 45.652344-55.15625 100.472656-55.15625 158.539063 0 78.859374 35.441406 152.097656 97.238281 200.945312 110.601563 87.421875 271.429688 69.316406 359.480469-42.078125 36.082031-45.652344 55.15625-100.472656 55.15625-158.539063 0-66.269531-25.074219-129.023437-70.605469-176.707031zm0 0" fill="#ffffff"/><path d="m66.246094 241.601562c-4.136719-.144531-7.664063 3.109376-7.8125 7.277344-5.300782 149.117188 150.640625 250.480469 285.050781 184.3125 132.792969-65.367187 148.375-248.527344 29.886719-336.074218-87.945313-64.980469-211.53125-46.25-276.371094 41.503906-17.519531 23.710937-29.28125 50.320312-34.960938 79.09375-.808593 4.089844 1.855469 8.0625 5.945313 8.871094 4.089844.808593 8.0625-1.851563 8.867187-5.945313 5.246094-26.566406 16.113282-51.144531 32.296876-73.046875 59.535156-80.578125 173.527343-98.714844 255.25-38.328125 45.910156 33.917969 74.066406 88.316406 74.066406 146.949219 0 100.785156-81.984375 182.285156-182.769532 182.285156-103.515624 0-185.800781-86.144531-182.171874-189.082031.148437-4.171875-3.109376-7.667969-7.277344-7.816407zm0 0" fill="#ffffff"/><path d="m220.054688 101.664062c-13.640626 0-24.734376 11.097657-24.734376 24.734376v11.003906c-.039062 0-.078124 0-.117187 0-15.894531 0-28.828125 12.933594-28.828125 28.832031 0 15.058594 11.605469 27.460937 26.34375 28.722656v122.304688c-14.734375 1.269531-26.339844 13.667969-26.339844 28.722656 0 15.707031 12.699219 28.832031 28.9375 28.832031v10.785156c0 13.636719 11.097656 24.734376 24.738282 24.734376 13.640624 0 24.734374-11.09375 24.734374-24.734376v-10.792968l19.273438-.003906v10.796874c0 13.640626 11.097656 24.734376 24.734375 24.734376 13.640625 0 24.738281-11.09375 24.738281-24.734376v-20.203124c6.695313-3.828126 12.441406-8.785157 17.125-14.789063 2.566406-3.289063 1.980469-8.035156-1.304687-10.597656-3.289063-2.566407-8.035157-1.980469-10.601563 1.304687-4.210937 5.398438-9.605468 9.671875-16.042968 12.703125-2.804688 1.324219-4.515626 4.222657-4.316407 7.316407l.015625.265624c.011719.125.023438.253907.023438.371094v23.628906c0 5.3125-4.320313 9.636719-9.636719 9.636719-5.3125 0-9.632813-4.324219-9.632813-9.636719v-18.347656c0-4.167968-3.382812-7.550781-7.550781-7.550781l-34.375.007813c-4.171875 0-7.550781 3.378906-7.550781 7.546874v18.34375c0 5.3125-4.320312 9.632813-9.632812 9.632813s-9.636719-4.320313-9.636719-9.632813c0-19.5.652343-20.8125-2.210938-23.675781-2.804687-2.804687-5.398437-2.210937-12.996093-2.210937-7.570313 0-13.730469-6.160156-13.730469-13.730469s6.160156-13.726563 13.730469-13.726563h5.058593c4.167969 0 7.550781-3.382812 7.550781-7.550781v-137.195312c0-4.167969-3.382812-7.546875-7.550781-7.546875h-5.066406c-7.570313 0-13.730469-6.160156-13.730469-13.730469s6.160156-13.730469 13.730469-13.730469c2.628906 0 5.183594-.003906 7.679687-.007812 4.164063-.007813 7.535157-3.386719 7.535157-7.550782v-18.546874c0-5.3125 4.320312-9.632813 9.636719-9.632813 5.3125 0 9.632812 4.320313 9.632812 9.632813v18.371093c0 4.28125 3.5625 7.628907 7.589844 7.550781 11.753906-.058593 24.28125-.09375 34.019531.316407 4.289063.183593 7.867187-3.25 7.867187-7.542969v-18.695312c0-5.3125 4.320313-9.632813 9.632813-9.632813s9.636719 4.320313 9.636719 9.632813c0 25.160156.035156 23.78125-.054688 24.65625-.328125 3.136718 1.324219 6.144531 4.148438 7.546874 16.761718 8.328126 22.792968 23.640626 22.792968 42.636719 0 17.191407-4.980468 31.394531-14.023437 40-3.472656 3.304688-3.023437 8.972657.921875 11.6875 15.203125 10.476563 18.179688 25.386719 18.179688 47.601563 0 5.894531-.472657 11.46875-1.40625 16.5625-.753907 4.101562 1.960937 8.035156 6.0625 8.789062 4.109374.753906 8.039062-1.964844 8.789062-6.066406 1.097656-5.988281 1.65625-12.476562 1.65625-19.285156 0-18.585938-1.523438-39.328125-18.09375-54.742188 8.542969-11.3125 13.015625-26.527344 13.015625-44.546875 0-22.851562-7.398437-42.035156-26.886719-53.800781v-21.039062c0-13.636719-11.09375-24.734376-24.734375-24.734376s-24.734375 11.097657-24.734375 24.734376v10.914062c-6.242187-.125-13.058594-.136719-19.277344-.121094v-10.792968c0-13.636719-11.09375-24.734376-24.734374-24.734376zm0 0" fill="#ffffff"/><path d="m240.070312 237.121094c8.183594 0 15.445313.25 21.90625.25 20.367188 0 38.644532-2.503906 38.644532-32.75 0-29.847656-24.460938-29.847656-40.648438-29.847656-5.980468 0-12.640625.167968-19.902344.167968-4.167968 0-7.550781 3.378906-7.550781 7.550782v47.078124c0 4.167969 3.382813 7.550782 7.550781 7.550782zm7.550782-47.125c4.363281-.050782 8.496094-.121094 12.351562-.121094 8.308594 0 16.589844.324219 20.921875 2.683594 1.5.820312 4.628907 2.523437 4.628907 12.0625 0 15.175781-3.300782 17.652344-23.546876 17.652344-4.296874 0-9.105468-.121094-14.355468-.195313zm0 0" fill="#ffffff"/><path d="m232.519531 329.707031c0 4.171875 3.382813 7.550781 7.550781 7.550781h30.027344c23.621094 0 35.601563-12.832031 35.601563-38.140624 0-17.675782-3.140625-27.902344-10.5-34.195313-11.007813-9.414063-27.867188-7.046875-55.128907-7.046875-4.167968 0-7.550781 3.378906-7.550781 7.550781zm15.101563-56.785156c18.402344-.222656 32.429687-1.085937 37.765625 3.476563 3.554687 3.042968 5.210937 10.261718 5.210937 22.71875 0 19.269531-7.515625 23.039062-20.5 23.039062h-22.476562zm0 0" fill="#ffffff"/></g></defs><g fi:class="KUsePattern"><pattern id="pattern_L1_0" width="350" height="350" patternUnits="userSpaceOnUse"><use xlink:href="#L1_0" x="-350" y="-350"/><use xlink:href="#L1_0" x="0" y="-350"/><use xlink:href="#L1_0" x="350" y="-350"/><use xlink:href="#L1_0" x="-350" y="0"/><use xlink:href="#L1_0" x="0" y="0"/><use xlink:href="#L1_0" x="350" y="0"/><use xlink:href="#L1_0" x="-350" y="350"/><use xlink:href="#L1_0" x="0" y="350"/><use xlink:href="#L1_0" x="350" y="350"/></pattern><rect x="0" y="0" width="100%" height="100%" fill="url(#pattern_L1_0)"/></g><g fi:class="KUsePattern"><pattern id="pattern_L1_1" width="350" height="350" patternUnits="userSpaceOnUse"><use xlink:href="#L1_1" x="-350" y="-350"/><use xlink:href="#L1_1" x="0" y="-350"/><use xlink:href="#L1_1" x="350" y="-350"/><use xlink:href="#L1_1" x="-350" y="0"/><use xlink:href="#L1_1" x="0" y="0"/><use xlink:href="#L1_1" x="350" y="0"/><use xlink:href="#L1_1" x="-350" y="350"/><use xlink:href="#L1_1" x="0" y="350"/><use xlink:href="#L1_1" x="350" y="350"/></pattern><rect x="0" y="0" width="100%" height="100%" fill="url(#pattern_L1_1)"/></g><g fi:class="KUsePattern"><pattern id="pattern_L1_2" width="350" height="350" patternUnits="userSpaceOnUse"><use xlink:href="#L1_2" x="-350" y="-350"/><use xlink:href="#L1_2" x="0" y="-350"/><use xlink:href="#L1_2" x="350" y="-350"/><use xlink:href="#L1_2" x="-350" y="0"/><use xlink:href="#L1_2" x="0" y="0"/><use xlink:href="#L1_2" x="350" y="0"/><use xlink:href="#L1_2" x="-350" y="350"/><use xlink:href="#L1_2" x="0" y="350"/><use xlink:href="#L1_2" x="350" y="350"/></pattern><rect x="0" y="0" width="100%" height="100%" fill="url(#pattern_L1_2)"/></g></svg>