<?xml version="1.0" encoding="utf-8"?>
<!-- Generator: Adobe Illustrator 21.0.2, SVG Export Plug-In . SVG Version: 6.00 Build 0)  -->
<svg version="1.1" id="Слой_2" xmlns="http://www.w3.org/2000/svg" xmlns:xlink="http://www.w3.org/1999/xlink" x="0px" y="0px"
	 viewBox="0 0 100 100" style="enable-background:new 0 0 100 100;" xml:space="preserve">
<style type="text/css">
	.st0{fill:url(#SVGID_1_);}
	.st1{fill:url(#SVGID_2_);}
	.st2{fill:url(#SVGID_3_);}
	.st3{fill:url(#SVGID_4_);}
</style>
<title>Монтажная область 21</title>
<linearGradient id="SVGID_1_" gradientUnits="userSpaceOnUse" x1="20.1006" y1="82.79" x2="74.6006" y2="11.29" gradientTransform="matrix(1 0 0 -1 0 100)">
	<stop  offset="0" style="stop-color:#2AB673"/>
	<stop  offset="1" style="stop-color:#8DC63F"/>
</linearGradient>
<path class="st0" d="M64.8,40.9c-0.6,0-1.2,0.1-1.8,0.3v-0.5c0-3-2.4-5.4-5.4-5.4h-0.2c-0.9,0-1.7,0.2-2.5,0.6
	c-0.5-2.5-2.7-4.3-5.3-4.3c-0.9,0-1.8,0.2-2.6,0.6v-7.8h9.5c0.8,0,1.5-0.7,1.5-1.5V8.5C58,7.7,57.3,7,56.5,7l0,0h-31
	C24.7,7,24,7.7,24,8.5v14.6c0,0.8,0.7,1.5,1.5,1.5H36v36.7l-8.8-7.2c-3.7-3.1-9-2.8-12.4,0.5c-0.5,0.5-0.6,1.4-0.1,2L36,83.9v12.6
	c0,0.8,0.7,1.5,1.5,1.5s1.5-0.7,1.5-1.5V83.4c0-0.3-0.1-0.7-0.3-0.9L17.9,55.9c2.3-1.5,5.3-1.3,7.4,0.5l11.3,9.2
	c0.6,0.5,1.6,0.4,2.1-0.2c0.2-0.3,0.3-0.6,0.3-0.9V19.6c0-1.3,1.1-2.4,2.4-2.4h0.2c1.3,0,2.4,1.1,2.4,2.4v31.9
	c0,0.8,0.7,1.5,1.5,1.5s1.5-0.7,1.5-1.5V37c0.1-1.3,1.3-2.3,2.6-2.3s2.4,1.1,2.4,2.4v3.4v0.1v0.1v10.8c0,0.8,0.7,1.5,1.5,1.5
	s1.5-0.7,1.5-1.5V40.8c0-1.3,1.1-2.4,2.4-2.4h0.2c1.3,0,2.4,1.1,2.4,2.4v10.8c0,0.8,0.7,1.5,1.5,1.5s1.5-0.7,1.5-1.5V46
	c-0.1-1,0.6-2,1.6-2.1c0.1,0,0.1,0,0.2,0c1.2,0,2.2,1,2.2,2.1v25.9c0,4.1-1.6,8.1-4.6,11C62.1,83.2,62,83.6,62,84v11.5
	c0,0.8,0.7,1.5,1.5,1.5c0.8,0,1.5-0.7,1.5-1.5V84.6c3.2-3.4,5-8,5-12.7V46C70,43.2,67.7,40.9,64.8,40.9z M41.6,14.2h-0.2
	c-3,0-5.4,2.4-5.4,5.4l0,0v2h-9V10h28v11.6h-8v-2C47,16.6,44.6,14.2,41.6,14.2z"/>
<linearGradient id="SVGID_2_" gradientUnits="userSpaceOnUse" x1="54.234" y1="108.8077" x2="108.734" y2="37.3077" gradientTransform="matrix(1 0 0 -1 0 100)">
	<stop  offset="0" style="stop-color:#2AB673"/>
	<stop  offset="1" style="stop-color:#8DC63F"/>
</linearGradient>
<path class="st1" d="M79.5,13h-15c-0.8,0-1.5,0.7-1.5,1.5s0.7,1.5,1.5,1.5h15c0.8,0,1.5-0.7,1.5-1.5S80.3,13,79.5,13z"/>
<linearGradient id="SVGID_3_" gradientUnits="userSpaceOnUse" x1="45.8339" y1="102.4048" x2="100.3339" y2="30.9048" gradientTransform="matrix(1 0 0 -1 0 100)">
	<stop  offset="0" style="stop-color:#2AB673"/>
	<stop  offset="1" style="stop-color:#8DC63F"/>
</linearGradient>
<path class="st2" d="M64.7,22c-0.6-0.6-1.6-0.5-2.1,0.1s-0.5,1.5,0,2L76,37.5c0.7,0.5,1.6,0.3,2.1-0.3c0.4-0.5,0.4-1.3,0-1.8
	L64.7,22z"/>
<linearGradient id="SVGID_4_" gradientUnits="userSpaceOnUse" x1="9.3222" y1="74.5742" x2="63.8222" y2="3.0742" gradientTransform="matrix(1 0 0 -1 0 100)">
	<stop  offset="0" style="stop-color:#2AB673"/>
	<stop  offset="1" style="stop-color:#8DC63F"/>
</linearGradient>
<path class="st3" d="M21.1,26.9c-0.6-0.6-1.5-0.6-2.1,0l-10,10c-0.6,0.6-0.6,1.5-0.1,2.1s1.5,0.6,2.1,0.1c0,0,0.1,0,0.1-0.1l10-10
	c0.6-0.6,0.7-1.5,0.1-2.1C21.1,27,21.1,26.9,21.1,26.9z"/>
</svg>
