<?xml version="1.0" encoding="utf-8"?>
<!-- Generator: Adobe Illustrator 21.0.2, SVG Export Plug-In . SVG Version: 6.00 Build 0)  -->
<svg version="1.1" id="Layer_1" xmlns="http://www.w3.org/2000/svg" xmlns:xlink="http://www.w3.org/1999/xlink" x="0px" y="0px"
	 viewBox="0 0 100.5 100.5" style="enable-background:new 0 0 100.5 100.5;" xml:space="preserve">
<style type="text/css">
	.st0{fill:url(#SVGID_1_);}
	.st1{fill:url(#SVGID_2_);}
	.st2{fill:url(#SVGID_3_);}
	.st3{fill:url(#SVGID_4_);}
	.st4{fill:url(#SVGID_5_);}
</style>
<g>
	
		<linearGradient id="SVGID_1_" gradientUnits="userSpaceOnUse" x1="19.0175" y1="69.0877" x2="93.6842" y2="36.421" gradientTransform="matrix(1 0 0 -1 0 100)">
		<stop  offset="0" style="stop-color:#2AB673"/>
		<stop  offset="1" style="stop-color:#8DC63F"/>
	</linearGradient>
	<path class="st0" d="M87.7,11.6H26.6c-3.6,0-6.6,2.6-6.7,5.9v12.8c0,0.8,0.7,1.5,1.5,1.5s1.5-0.7,1.5-1.5V17.5
		c0-1.6,1.7-2.9,3.7-2.9h61.1c2,0,3.7,1.3,3.7,3v48.9c0,1.6-1.6,3-3.7,3H26.6c-2,0-3.7-1.3-3.7-3v-7c0-0.8-0.7-1.5-1.5-1.5
		s-1.5,0.7-1.5,1.5v7c0,3.3,3,6,6.7,6h28.8v12.9h-19c-0.8,0-1.5,0.7-1.5,1.5s0.7,1.5,1.5,1.5h40.9c0.8,0,1.5-0.7,1.5-1.5
		s-0.7-1.5-1.5-1.5H58.4V72.5h29.3c3.7,0,6.7-2.7,6.7-6V17.6C94.3,14.3,91.3,11.6,87.7,11.6z"/>
	
		<linearGradient id="SVGID_2_" gradientUnits="userSpaceOnUse" x1="24.7615" y1="82.2168" x2="99.4282" y2="49.5502" gradientTransform="matrix(1 0 0 -1 0 100)">
		<stop  offset="0" style="stop-color:#2AB673"/>
		<stop  offset="1" style="stop-color:#8DC63F"/>
	</linearGradient>
	<path class="st1" d="M47.1,36.1h32.2c0.8,0,1.5-0.7,1.5-1.5s-0.7-1.5-1.5-1.5H47.1c-0.8,0-1.5,0.7-1.5,1.5S46.3,36.1,47.1,36.1z"/>
	
		<linearGradient id="SVGID_3_" gradientUnits="userSpaceOnUse" x1="21.273" y1="74.2431" x2="95.9397" y2="41.5764" gradientTransform="matrix(1 0 0 -1 0 100)">
		<stop  offset="0" style="stop-color:#2AB673"/>
		<stop  offset="1" style="stop-color:#8DC63F"/>
	</linearGradient>
	<path class="st2" d="M47.1,45.6h32.2c0.8,0,1.5-0.7,1.5-1.5s-0.7-1.5-1.5-1.5H47.1c-0.8,0-1.5,0.7-1.5,1.5S46.3,45.6,47.1,45.6z"/>
	
		<linearGradient id="SVGID_4_" gradientUnits="userSpaceOnUse" x1="17.6009" y1="65.8496" x2="92.2675" y2="33.183" gradientTransform="matrix(1 0 0 -1 0 100)">
		<stop  offset="0" style="stop-color:#2AB673"/>
		<stop  offset="1" style="stop-color:#8DC63F"/>
	</linearGradient>
	<path class="st3" d="M47.1,55.6h32.2c0.8,0,1.5-0.7,1.5-1.5s-0.7-1.5-1.5-1.5H47.1c-0.8,0-1.5,0.7-1.5,1.5S46.3,55.6,47.1,55.6z"/>
	
		<linearGradient id="SVGID_5_" gradientUnits="userSpaceOnUse" x1="19.0815" y1="69.2339" x2="93.7481" y2="36.5672" gradientTransform="matrix(1 0 0 -1 0 100)">
		<stop  offset="0" style="stop-color:#2AB673"/>
		<stop  offset="1" style="stop-color:#8DC63F"/>
	</linearGradient>
	<path class="st4" d="M21.1,48.7c0.4,0,0.8-0.1,1.1-0.4l21.7-21.7c0.6-0.6,0.6-1.5,0-2.1s-1.5-0.6-2.1,0L20.9,45.3L8,36.1
		c-0.7-0.5-1.6-0.3-2.1,0.4s-0.3,1.6,0.4,2.1l13.9,9.9C20.5,48.6,20.8,48.7,21.1,48.7z"/>
</g>
</svg>
