<?xml version="1.0" encoding="utf-8"?>
<!-- Generator: Adobe Illustrator 21.0.2, SVG Export Plug-In . SVG Version: 6.00 Build 0)  -->
<svg version="1.1" id="Layer_1" xmlns="http://www.w3.org/2000/svg" xmlns:xlink="http://www.w3.org/1999/xlink" x="0px" y="0px"
	 viewBox="0 0 100.8 100.7" style="enable-background:new 0 0 100.8 100.7;" xml:space="preserve">
<style type="text/css">
	.st0{fill:url(#SVGID_1_);}
	.st1{enable-background:new    ;}
	.st2{fill:url(#SVGID_2_);}
	.st3{fill:url(#SVGID_3_);}
	.st4{fill:url(#SVGID_4_);}
	.st5{fill:url(#SVGID_5_);}
	.st6{fill:url(#SVGID_6_);}
	.st7{fill:url(#SVGID_7_);}
	.st8{fill:url(#SVGID_8_);}
	.st9{fill:url(#SVGID_9_);}
	.st10{fill:url(#SVGID_10_);}
	.st11{fill:url(#SVGID_11_);}
	.st12{fill:url(#SVGID_12_);}
	.st13{fill:url(#SVGID_13_);}
	.st14{fill:url(#SVGID_14_);}
</style>
<g>
	
		<linearGradient id="SVGID_1_" gradientUnits="userSpaceOnUse" x1="10.6669" y1="38.9916" x2="87.8336" y2="31.1583" gradientTransform="matrix(1 0 0 -1 0 100)">
		<stop  offset="0" style="stop-color:#2AB673"/>
		<stop  offset="1" style="stop-color:#8DC63F"/>
	</linearGradient>
	<path class="st0" d="M25.3,56.4c0,0.5,0.4,1,1,1s1-0.4,1-1c0-3.3-3-6-6.8-6.4v-2.7c0-0.5-0.4-1-1-1s-1,0.4-1,1V50
		c-3.8,0.4-6.8,3.1-6.8,6.4c0,3.3,3,6,6.8,6.4v9c-2.8-0.4-4.9-2.2-4.9-4.4c0-0.5-0.4-1-1-1s-1,0.4-1,1c0,3.3,3,6,6.8,6.4v2.7
		c0,0.5,0.4,1,1,1s1-0.4,1-1v-2.7c3.8-0.4,6.8-3.1,6.8-6.4s-3-6-6.8-6.4v-9C23.2,52.3,25.3,54.2,25.3,56.4z M13.6,56.4
		c0-2.2,2.1-4.1,4.9-4.4v8.9C15.7,60.5,13.6,58.6,13.6,56.4z M25.3,67.4c0,2.2-2.1,4.1-4.9,4.4v-8.9C23.2,63.3,25.3,65.1,25.3,67.4z
		"/>
</g>
<g class="st1">
	
		<linearGradient id="SVGID_2_" gradientUnits="userSpaceOnUse" x1="11.422" y1="46.4301" x2="88.5887" y2="38.5967" gradientTransform="matrix(1 0 0 -1 0 100)">
		<stop  offset="0" style="stop-color:#2AB673"/>
		<stop  offset="1" style="stop-color:#8DC63F"/>
	</linearGradient>
	<path class="st2" d="M54,55.4c-0.1,0.5-0.2,1-0.3,1.5c0.9-0.8,1.7-1.1,2.4-1.1c1.2,0,1.8,0.6,1.6,1.7L57.1,62h-2.2l0.5-3.8
		c0-0.4,0-0.5-0.3-0.5c-0.4,0-0.9,0.2-1.5,0.7L53.1,62h-2.2l1.2-8.5h2.2L54,55.4z"/>
	
		<linearGradient id="SVGID_3_" gradientUnits="userSpaceOnUse" x1="11.3972" y1="46.1861" x2="88.5639" y2="38.3527" gradientTransform="matrix(1 0 0 -1 0 100)">
		<stop  offset="0" style="stop-color:#2AB673"/>
		<stop  offset="1" style="stop-color:#8DC63F"/>
	</linearGradient>
	<path class="st3" d="M65,59c-0.3,2.3-1.2,3.1-3.5,3.1s-3.3-0.9-2.9-3.2c0.3-2.3,1.2-3.1,3.6-3.1C64.4,55.7,65.3,56.6,65,59z
		 M60.8,59c-0.2,1.2-0.1,1.5,0.7,1.5s1-0.3,1.2-1.7c0.2-1.3,0.1-1.5-0.7-1.5C61.2,57.2,61,57.5,60.8,59z"/>
	
		<linearGradient id="SVGID_4_" gradientUnits="userSpaceOnUse" x1="11.3582" y1="45.8017" x2="88.5242" y2="37.9684" gradientTransform="matrix(1 0 0 -1 0 100)">
		<stop  offset="0" style="stop-color:#2AB673"/>
		<stop  offset="1" style="stop-color:#8DC63F"/>
	</linearGradient>
	<path class="st4" d="M68.1,57c0.6-0.6,1.5-1.2,2.5-1.2c1.4,0,2,1,1.7,3.3c-0.3,2.6-1.4,3-2.8,3c-0.4,0-1.1,0-1.7-0.2
		c0,0.4,0,0.7-0.1,1.1l-0.2,1.1h-2.2l1.1-8.3h1.7V57z M68.7,60.6c1,0,1.1-0.2,1.3-1.6c0.2-1.3,0.1-1.6-0.4-1.6
		c-0.4,0-0.9,0.3-1.4,0.8L68,60.6H68.7z"/>
	
		<linearGradient id="SVGID_5_" gradientUnits="userSpaceOnUse" x1="11.4337" y1="46.5452" x2="88.5996" y2="38.712" gradientTransform="matrix(1 0 0 -1 0 100)">
		<stop  offset="0" style="stop-color:#2AB673"/>
		<stop  offset="1" style="stop-color:#8DC63F"/>
	</linearGradient>
	<path class="st5" d="M75.5,57c0.6-0.6,1.5-1.2,2.5-1.2c1.4,0,2,1,1.7,3.3c-0.3,2.6-1.4,3-2.8,3c-0.4,0-1.1,0-1.7-0.2
		c0,0.4,0,0.7-0.1,1.1l-0.2,1.1h-2.2l1.1-8.3h1.7V57z M76,60.6c1,0,1.1-0.2,1.3-1.6c0.2-1.3,0.1-1.6-0.4-1.6c-0.4,0-0.9,0.3-1.4,0.8
		l-0.3,2.4C75.2,60.6,76,60.6,76,60.6z"/>
	
		<linearGradient id="SVGID_6_" gradientUnits="userSpaceOnUse" x1="11.6316" y1="48.4684" x2="88.7983" y2="40.6351" gradientTransform="matrix(1 0 0 -1 0 100)">
		<stop  offset="0" style="stop-color:#2AB673"/>
		<stop  offset="1" style="stop-color:#8DC63F"/>
	</linearGradient>
	<path class="st6" d="M86.2,61.5c-0.8,0.4-1.9,0.5-2.8,0.5c-2.6,0-3.3-1.1-3-3.2c0.3-2.5,1.4-3.1,3.6-3.1c2.4,0,3,0.8,2.8,2.2
		c-0.2,1.1-0.9,1.5-2.5,1.6l-1.6,0.1c0,0.6,0.3,0.8,1,0.8c0.5,0,1.7-0.1,2.4-0.1L86.2,61.5z M83.8,58.3c0.5,0,0.8-0.1,0.9-0.7
		c0-0.4-0.1-0.5-0.7-0.5c-0.7,0-1,0.2-1.2,1.2H83.8z"/>
	
		<linearGradient id="SVGID_7_" gradientUnits="userSpaceOnUse" x1="11.702" y1="49.188" x2="88.8686" y2="41.3547" gradientTransform="matrix(1 0 0 -1 0 100)">
		<stop  offset="0" style="stop-color:#2AB673"/>
		<stop  offset="1" style="stop-color:#8DC63F"/>
	</linearGradient>
	<path class="st7" d="M92.2,57.7h-0.5c-0.5,0-1,0.1-1.8,0.4l-0.5,3.7h-2.2l0.8-6h1.7v1c0.9-0.8,1.7-1.1,2.5-1.1h0.4L92.2,57.7z"/>
</g>
<g class="st1">
	
		<linearGradient id="SVGID_8_" gradientUnits="userSpaceOnUse" x1="11.4327" y1="46.5359" x2="88.5994" y2="38.7025" gradientTransform="matrix(1 0 0 -1 0 100)">
		<stop  offset="0" style="stop-color:#2AB673"/>
		<stop  offset="1" style="stop-color:#8DC63F"/>
	</linearGradient>
	<path class="st8" d="M93.9,60.8c0.5,0,0.8,0.3,0.7,0.8l-0.1,0.5c-0.1,0.5-0.3,0.7-0.8,0.7h-0.5c-0.5,0-0.8-0.3-0.7-0.8l0.1-0.5
		c0.1-0.5,0.3-0.7,0.8-0.7H93.9z"/>
</g>
<g class="st1">
	
		<linearGradient id="SVGID_9_" gradientUnits="userSpaceOnUse" x1="10.4699" y1="37.0508" x2="87.6365" y2="29.2174" gradientTransform="matrix(1 0 0 -1 0 100)">
		<stop  offset="0" style="stop-color:#2AB673"/>
		<stop  offset="1" style="stop-color:#8DC63F"/>
	</linearGradient>
	<path class="st9" d="M52.1,65.3c0.8-0.8,1.5-1.1,2.3-1.1s1.4,0.4,1.5,1c0.7-0.7,1.4-1,2.1-1c1.2,0,1.7,0.7,1.6,1.7L59,70.4h-2.2
		l0.5-3.8c0-0.4-0.1-0.5-0.3-0.5c-0.3,0-0.6,0.1-1.2,0.6l-0.5,3.7h-2.1l0.5-3.8c0.1-0.4,0-0.5-0.3-0.5s-0.6,0.1-1.2,0.6l-0.5,3.8
		h-2.2l0.8-6H52L52.1,65.3z"/>
	
		<linearGradient id="SVGID_10_" gradientUnits="userSpaceOnUse" x1="10.5616" y1="37.9539" x2="87.7282" y2="30.1205" gradientTransform="matrix(1 0 0 -1 0 100)">
		<stop  offset="0" style="stop-color:#2AB673"/>
		<stop  offset="1" style="stop-color:#8DC63F"/>
	</linearGradient>
	<path class="st10" d="M66.8,67.5c-0.3,2.3-1.2,3.1-3.5,3.1c-2.3,0-3.3-0.9-2.9-3.2c0.3-2.3,1.2-3.1,3.6-3.1
		C66.2,64.2,67.2,65.1,66.8,67.5z M62.6,67.5c-0.2,1.2-0.1,1.5,0.7,1.5s1-0.3,1.2-1.7c0.2-1.3,0.1-1.5-0.7-1.5
		C63.1,65.7,62.8,66,62.6,67.5z"/>
	
		<linearGradient id="SVGID_11_" gradientUnits="userSpaceOnUse" x1="10.641" y1="38.7369" x2="87.8077" y2="30.9035" gradientTransform="matrix(1 0 0 -1 0 100)">
		<stop  offset="0" style="stop-color:#2AB673"/>
		<stop  offset="1" style="stop-color:#8DC63F"/>
	</linearGradient>
	<path class="st11" d="M70,65.5c0.8-0.8,1.8-1.3,2.7-1.3c1,0,1.7,0.6,1.5,1.7l-0.6,4.5h-2.2l0.5-3.8c0.1-0.4,0-0.6-0.4-0.5
		c-0.4,0-0.8,0.2-1.4,0.7l-0.5,3.6h-2.2l0.8-6H70V65.5z"/>
	
		<linearGradient id="SVGID_12_" gradientUnits="userSpaceOnUse" x1="10.7198" y1="39.5128" x2="87.8865" y2="31.6795" gradientTransform="matrix(1 0 0 -1 0 100)">
		<stop  offset="0" style="stop-color:#2AB673"/>
		<stop  offset="1" style="stop-color:#8DC63F"/>
	</linearGradient>
	<path class="st12" d="M80.8,70c-0.8,0.4-1.9,0.5-2.8,0.5c-2.6,0-3.3-1.1-3-3.2c0.3-2.5,1.4-3.1,3.6-3.1c2.4,0,3,0.8,2.8,2.2
		c-0.2,1.1-0.9,1.5-2.5,1.6l-1.6,0.1c0,0.6,0.3,0.8,1,0.8c0.5,0,1.7-0.1,2.4-0.1L80.8,70z M78.4,66.8c0.5,0,0.8-0.1,0.9-0.7
		c0-0.4-0.1-0.5-0.7-0.5c-0.7,0-1,0.2-1.2,1.2H78.4z"/>
	
		<linearGradient id="SVGID_13_" gradientUnits="userSpaceOnUse" x1="10.6634" y1="38.957" x2="87.83" y2="31.1236" gradientTransform="matrix(1 0 0 -1 0 100)">
		<stop  offset="0" style="stop-color:#2AB673"/>
		<stop  offset="1" style="stop-color:#8DC63F"/>
	</linearGradient>
	<path class="st13" d="M88.9,64.4c-0.3,2.1-1.4,4.7-2,5.7c-1.2,2-2.6,2.9-4.6,2.8l-0.2-1.2c0.9-0.3,1.6-0.4,2.3-1.2h-0.8
		c-0.4,0-0.7-0.3-0.8-0.6L82,64.4h2.4l0.3,4.4c0,0.1,0.1,0.2,0.2,0.2h0.4c0.6-1.3,1-2.6,1.3-4.6H88.9z"/>
</g>
<linearGradient id="SVGID_14_" gradientUnits="userSpaceOnUse" x1="14.0968" y1="72.7795" x2="91.2634" y2="64.9462" gradientTransform="matrix(1 0 0 -1 0 100)">
	<stop  offset="0" style="stop-color:#2AB673"/>
	<stop  offset="1" style="stop-color:#8DC63F"/>
</linearGradient>
<path class="st14" d="M55.5,37.3c0.3-1,1.4-1.5,2.4-1.2l5.4,1.7c-0.2-0.7-0.4-1.4-0.7-2C58.9,26.5,48.3,22,39,25.7
	c-4.4,1.8-8,5.3-9.8,9.7c-0.4,0.9-1.6,1.4-2.5,0.9c-0.9-0.4-1.3-1.4-1-2.4c2.2-5.3,6.5-9.6,11.9-11.7c11.3-4.5,24,0.9,28.5,12
	c0.3,0.7,0.5,1.5,0.8,2.2l2.9-5.2c0.5-0.9,1.7-1.2,2.6-0.7c0.8,0.5,1.1,1.5,0.7,2.4l-4.7,8.6c-0.4,0.8-1.4,1.2-2.2,0.9l-9.4-2.9
	C55.7,39.4,55.2,38.3,55.5,37.3L55.5,37.3z"/>
</svg>
