<?xml version="1.0" encoding="utf-8"?>
<!-- Generator: Adobe Illustrator 21.0.2, SVG Export Plug-In . SVG Version: 6.00 Build 0)  -->
<svg version="1.1" id="Слой_1" xmlns="http://www.w3.org/2000/svg" xmlns:xlink="http://www.w3.org/1999/xlink" x="0px" y="0px"
	 viewBox="0 0 100 100" style="enable-background:new 0 0 100 100;" xml:space="preserve">
<style type="text/css">
	.st0{fill:url(#SVGID_1_);}
	.st1{fill:url(#SVGID_2_);}
	.st2{fill:url(#SVGID_3_);}
	.st3{fill:url(#SVGID_4_);}
	.st4{fill:url(#SVGID_5_);}
	.st5{fill:url(#SVGID_6_);}
</style>
<title>testМонтажная область 5</title>
<linearGradient id="SVGID_1_" gradientUnits="userSpaceOnUse" x1="25.211" y1="42.0742" x2="74.211" y2="57.7409" gradientTransform="matrix(1 0 0 -1 0 100)">
	<stop  offset="0" style="stop-color:#2AB673"/>
	<stop  offset="1" style="stop-color:#8DC63F"/>
</linearGradient>
<path class="st0" d="M70,7.5H30c-2.5,0-4.5,2-4.5,4.5v76c0,2.5,2,4.5,4.5,4.5h40c2.5,0,4.5-2,4.5-4.5V12C74.5,9.5,72.5,7.5,70,7.5z
	 M28.5,20.5h43v55h-43V20.5z M30,10.5h40c0.8,0,1.5,0.7,1.5,1.5v5.5h-43V12C28.5,11.2,29.2,10.5,30,10.5z M70,89.5H30
	c-0.8,0-1.5-0.7-1.5-1.5v-9.5h43V88C71.5,88.8,70.8,89.5,70,89.5z"/>
<linearGradient id="SVGID_2_" gradientUnits="userSpaceOnUse" x1="35.0735" y1="11.2276" x2="84.0735" y2="26.8942" gradientTransform="matrix(1 0 0 -1 0 100)">
	<stop  offset="0" style="stop-color:#2AB673"/>
	<stop  offset="1" style="stop-color:#8DC63F"/>
</linearGradient>
<circle class="st1" cx="50" cy="84" r="2"/>
<linearGradient id="SVGID_3_" gradientUnits="userSpaceOnUse" x1="27.1266" y1="36.0827" x2="76.1266" y2="51.7493" gradientTransform="matrix(1 0 0 -1 0 100)">
	<stop  offset="0" style="stop-color:#2AB673"/>
	<stop  offset="1" style="stop-color:#8DC63F"/>
</linearGradient>
<path class="st2" d="M49.7,45.8c-6,0-10.9,4.9-10.9,10.9s4.9,10.9,10.9,10.9s10.9-4.9,10.9-10.9S55.7,45.8,49.7,45.8z M49.7,66.5
	c-5.4,0-9.8-4.4-9.8-9.8s4.4-9.8,9.8-9.8s9.8,4.4,9.8,9.8S55,66.5,49.7,66.5z"/>
<linearGradient id="SVGID_4_" gradientUnits="userSpaceOnUse" x1="20.4308" y1="57.0248" x2="69.4308" y2="72.6915" gradientTransform="matrix(1 0 0 -1 0 100)">
	<stop  offset="0" style="stop-color:#2AB673"/>
	<stop  offset="1" style="stop-color:#8DC63F"/>
</linearGradient>
<path class="st3" d="M50.3,26.5L50.3,26.5C50.2,26.5,50.2,26.5,50.3,26.5c-0.2-0.1-0.4-0.1-0.6,0l-2.1,2.1c-0.2,0.2-0.2,0.4,0,0.6
	c0.1,0.1,0.2,0.1,0.3,0.1s0.2,0,0.3-0.1l1.5-1.5v12.5c0,0.2,0.2,0.4,0.4,0.4s0.4-0.2,0.4-0.4V27.8l1.4,1.4c0.2,0.2,0.4,0.2,0.6,0
	c0.2-0.2,0.2-0.4,0-0.6L50.3,26.5z"/>
<linearGradient id="SVGID_5_" gradientUnits="userSpaceOnUse" x1="26.8431" y1="36.9696" x2="75.8431" y2="52.6362" gradientTransform="matrix(1 0 0 -1 0 100)">
	<stop  offset="0" style="stop-color:#2AB673"/>
	<stop  offset="1" style="stop-color:#8DC63F"/>
</linearGradient>
<path class="st4" d="M47.1,50.8l-1.8,10.9H49l1.2-7.3C50.5,52.6,49.1,50.8,47.1,50.8L47.1,50.8z"/>
<linearGradient id="SVGID_6_" gradientUnits="userSpaceOnUse" x1="27.63" y1="34.5082" x2="76.63" y2="50.1749" gradientTransform="matrix(1 0 0 -1 0 100)">
	<stop  offset="0" style="stop-color:#2AB673"/>
	<stop  offset="1" style="stop-color:#8DC63F"/>
</linearGradient>
<path class="st5" d="M50.9,53.6l-1.4,8.2h3.6l0.8-4.6C54.3,55.3,52.8,53.6,50.9,53.6L50.9,53.6z"/>
</svg>
