<?xml version="1.0" encoding="utf-8"?>
<!-- Generator: Adobe Illustrator 21.0.2, SVG Export Plug-In . SVG Version: 6.00 Build 0)  -->
<svg version="1.1" id="Layer_1" xmlns="http://www.w3.org/2000/svg" xmlns:xlink="http://www.w3.org/1999/xlink" x="0px" y="0px"
	 viewBox="0 0 100.4 100.4" style="enable-background:new 0 0 100.4 100.4;" xml:space="preserve">
<style type="text/css">
	.st0{fill:url(#SVGID_1_);}
</style>
<linearGradient id="SVGID_1_" gradientUnits="userSpaceOnUse" x1="4.7405" y1="56.5942" x2="77.7405" y2="43.5942">
	<stop  offset="0" style="stop-color:#2AB673"/>
	<stop  offset="1" style="stop-color:#8DC63F"/>
</linearGradient>
<path class="st0" d="M94.4,49.6h-7.8V36.5c0-0.8-0.7-1.5-1.5-1.5H60.8V22c0-0.8-0.7-1.5-1.5-1.5H5.6c-0.8,0-1.5,0.7-1.5,1.5v49.2
	c0,0.8,0.7,1.5,1.5,1.5h12.5c0.5,3.9,3.8,6.9,7.8,6.9s7.3-3,7.8-6.9h25.5H69c0.5,3.9,3.8,6.9,7.8,6.9s7.3-3,7.8-6.9h9.7
	c0.8,0,1.5-0.7,1.5-1.5v-20C95.9,50.3,95.2,49.6,94.4,49.6z M26,76.5c-2.7,0-4.9-2.2-4.9-4.9s2.2-4.9,4.9-4.9s4.9,2.2,4.9,4.9
	S28.7,76.5,26,76.5z M26,63.7c-3.7,0-6.8,2.5-7.7,6H7.1V23.5h50.7v13.1v14.6v18.5H33.7C32.8,66.2,29.7,63.7,26,63.7z M76.9,76.5
	c-2.7,0-4.9-2.2-4.9-4.9s2.2-4.9,4.9-4.9s4.9,2.2,4.9,4.9S79.6,76.5,76.9,76.5z M92.9,69.7h-8.4c-0.9-3.4-4-6-7.7-6s-6.8,2.5-7.7,6
	h-8.4V51.1V38h22.8v13.1c0,0.8,0.7,1.5,1.5,1.5h7.8L92.9,69.7L92.9,69.7z"/>
</svg>
