<?xml version="1.0" encoding="utf-8"?>
<!-- Generator: Adobe Illustrator 21.0.2, SVG Export Plug-In . SVG Version: 6.00 Build 0)  -->
<svg version="1.1" id="Layer_1" xmlns="http://www.w3.org/2000/svg" xmlns:xlink="http://www.w3.org/1999/xlink" x="0px" y="0px"
	 viewBox="0 0 62.2 41.4" style="enable-background:new 0 0 62.2 41.4;" xml:space="preserve">
<style type="text/css">
	.st0{fill:url(#SVGID_1_);}
	.st1{fill:url(#SVGID_2_);}
	.st2{fill:url(#SVGID_3_);}
	.st3{fill:url(#SVGID_4_);}
</style>
<g>
	
		<linearGradient id="SVGID_1_" gradientUnits="userSpaceOnUse" x1="1.8943" y1="25.2015" x2="57.3943" y2="23.4515" gradientTransform="matrix(1 0 0 -1 0 44)">
		<stop  offset="0" style="stop-color:#2AB673"/>
		<stop  offset="1" style="stop-color:#8DC63F"/>
	</linearGradient>
	<polygon class="st0" points="43.4,20.7 62.2,39.5 62.2,1.9 	"/>
	
		<linearGradient id="SVGID_2_" gradientUnits="userSpaceOnUse" x1="2.0863" y1="31.29" x2="57.5863" y2="29.54" gradientTransform="matrix(1 0 0 -1 0 44)">
		<stop  offset="0" style="stop-color:#2AB673"/>
		<stop  offset="1" style="stop-color:#8DC63F"/>
	</linearGradient>
	<path class="st1" d="M32.9,27.5L60.4,0c0,0,0,0-0.1,0H1.9l27.5,27.5C30.4,28.4,32,28.4,32.9,27.5z"/>
	
		<linearGradient id="SVGID_3_" gradientUnits="userSpaceOnUse" x1="1.498" y1="12.6338" x2="56.998" y2="10.8838" gradientTransform="matrix(1 0 0 -1 0 44)">
		<stop  offset="0" style="stop-color:#2AB673"/>
		<stop  offset="1" style="stop-color:#8DC63F"/>
	</linearGradient>
	<path class="st2" d="M34.8,29.4c-1,1-2.2,1.5-3.6,1.5s-2.6-0.5-3.6-1.5l-7-7l-19,19c0.1,0,0.2,0,0.2,0h58.5L41.6,22.6L34.8,29.4z"
		/>
	
		<linearGradient id="SVGID_4_" gradientUnits="userSpaceOnUse" x1="1.8388" y1="23.442" x2="57.3388" y2="21.692" gradientTransform="matrix(1 0 0 -1 0 44)">
		<stop  offset="0" style="stop-color:#2AB673"/>
		<stop  offset="1" style="stop-color:#8DC63F"/>
	</linearGradient>
	<path class="st3" d="M0,1.8L0,1.8v37.4l18.7-18.7L0,1.8z"/>
</g>
</svg>
